<svg width="18" height="19" viewBox="0 0 18 19" fill="none" xmlns="http://www.w3.org/2000/svg">
<g clip-path="url(#clip0_25_397)">
<path d="M13.3125 0.97522C11.3159 0.97522 9.66688 2.82971 9 3.70496C8.33312 2.82971 6.68408 0.97522 4.68749 0.97522C2.1028 0.97522 0 3.35157 0 6.27211C0 7.86549 0.632461 9.35046 1.7395 10.3667C1.7556 10.3946 1.77539 10.4202 1.79845 10.4433L8.73524 17.3657C8.80847 17.4386 8.90406 17.4752 9 17.4752C9.09594 17.4752 9.19188 17.4386 9.26515 17.3654L16.4326 10.2005L16.5066 10.1287C16.5652 10.0734 16.6231 10.0173 16.6879 9.94558C16.715 9.91886 16.7373 9.88881 16.7545 9.85622C17.5584 8.87184 18 7.60217 18 6.27211C18 3.35157 15.8972 0.97522 13.3125 0.97522ZM16.1305 9.43434C16.1202 9.44643 16.1107 9.45923 16.1023 9.47241C16.0671 9.5127 16.0287 9.54821 15.9906 9.58449L8.99965 16.5703L2.41407 9.99793C2.39284 9.95617 2.36317 9.91809 2.32692 9.88624C1.32458 9.01099 0.749988 7.69372 0.749988 6.27211C0.749988 3.76501 2.51624 1.72524 4.68749 1.72524C6.83423 1.72524 8.66637 4.5253 8.68468 4.55349C8.82313 4.76735 9.17687 4.76735 9.31532 4.55349C9.33363 4.5253 11.1658 1.72524 13.3125 1.72524C15.4838 1.72524 17.25 3.76504 17.25 6.27211C17.25 7.4535 16.8523 8.57667 16.1305 9.43434Z" fill="#141416"/>
</g>
<defs>
<clipPath id="clip0_25_397">
<rect width="18" height="18" fill="white" transform="translate(0 0.22522)"/>
</clipPath>
</defs>
</svg>
