<svg width="10" height="11" viewBox="0 0 10 11" fill="none" xmlns="http://www.w3.org/2000/svg">
<path d="M9.06253 4.91275V1.38369L9.95425 0.491972C9.98271 0.462502 9.99846 0.423033 9.9981 0.382065C9.99775 0.341097 9.98131 0.301907 9.95234 0.272937C9.92337 0.243967 9.88418 0.227535 9.84322 0.227179C9.80225 0.226823 9.76278 0.242572 9.73331 0.271034L8.84159 1.16275H5.31253C5.27109 1.16276 5.23135 1.17923 5.20206 1.20853L0.0458089 6.36478C0.0165166 6.39409 6.10352e-05 6.43382 6.10352e-05 6.47525C6.10352e-05 6.51669 0.0165166 6.55642 0.0458089 6.58572L3.63956 10.1795C3.66886 10.2088 3.7086 10.2252 3.75003 10.2252C3.79146 10.2252 3.8312 10.2088 3.8605 10.1795L9.01675 5.02322C9.04605 4.99393 9.06252 4.95419 9.06253 4.91275ZM3.75003 9.84807L0.377215 6.47525L5.37722 1.47525H8.52909L7.46143 2.54291C7.29947 2.43571 7.10346 2.39248 6.91143 2.42161C6.71939 2.45074 6.54502 2.55015 6.42213 2.70056C6.29924 2.85097 6.23659 3.04166 6.24633 3.23564C6.25608 3.42963 6.33752 3.61308 6.47486 3.75042C6.6122 3.88776 6.79565 3.9692 6.98964 3.97895C7.18362 3.98869 7.37431 3.92604 7.52472 3.80315C7.67514 3.68026 7.77455 3.50589 7.80367 3.31385C7.8328 3.12182 7.78957 2.92581 7.68237 2.76385L8.75003 1.69619V4.84807L3.75003 9.84807ZM7.50003 3.194C7.50003 3.28671 7.47254 3.37734 7.42103 3.45443C7.36952 3.53151 7.29631 3.59159 7.21066 3.62707C7.12501 3.66255 7.03076 3.67183 6.93983 3.65375C6.8489 3.63566 6.76538 3.59101 6.69982 3.52546C6.63427 3.4599 6.58962 3.37638 6.57153 3.28545C6.55345 3.19452 6.56273 3.10027 6.59821 3.01462C6.63369 2.92897 6.69377 2.85576 6.77085 2.80425C6.84794 2.75274 6.93857 2.72525 7.03128 2.72525C7.10088 2.72552 7.16953 2.74155 7.23206 2.77213L6.92081 3.08338C6.90589 3.09779 6.89398 3.11503 6.88579 3.1341C6.8776 3.15316 6.87329 3.17366 6.87311 3.19441C6.87293 3.21516 6.87689 3.23573 6.88474 3.25493C6.8926 3.27414 6.9042 3.29158 6.91887 3.30625C6.93354 3.32092 6.95099 3.33252 6.97019 3.34038C6.98939 3.34824 7.00997 3.35219 7.03072 3.35201C7.05146 3.35183 7.07197 3.34752 7.09103 3.33933C7.11009 3.33114 7.12733 3.31924 7.14175 3.30432L7.45315 2.99322C7.48373 3.05575 7.49976 3.1244 7.50003 3.194Z" fill="#141416"/>
</svg>
